<?xml version="1.0" standalone="no"?>
<!DOCTYPE svg PUBLIC "-//W3C//DTD SVG 20010904//EN"
 "http://www.w3.org/TR/2001/REC-SVG-20010904/DTD/svg10.dtd">
<svg version="1.0" xmlns="http://www.w3.org/2000/svg"
 width="460.000000pt" height="460.000000pt" viewBox="0 0 460.000000 460.000000"
 preserveAspectRatio="xMidYMid meet">
<metadata>
Created by potrace 1.11, written by Peter Selinger 2001-2013
</metadata>
<g transform="translate(0.000000,460.000000) scale(0.100000,-0.100000)"
fill="#000000" stroke="none">
<path d="M1278 4547 c-157 -94 -356 -209 -463 -268 -78 -43 -90 -50 -116 -67
-15 -9 -57 -34 -95 -56 -116 -65 -205 -117 -296 -173 -48 -29 -91 -53 -95 -53
-4 0 -53 -27 -110 -61 l-103 -61 0 -914 0 -913 55 -36 c31 -19 58 -35 60 -35
3 0 22 -11 43 -23 20 -13 57 -35 82 -49 66 -37 226 -130 295 -172 l60 -36 3
162 c1 89 1 167 -2 174 -2 6 -37 29 -78 52 -40 22 -107 59 -148 83 l-75 44 0
747 c0 410 2 748 5 750 12 10 149 88 153 88 3 0 80 44 171 98 144 85 234 137
375 217 20 12 55 33 79 48 24 15 54 32 67 37 13 5 43 21 67 36 69 44 228 136
326 189 l54 29 31 -19 c18 -10 56 -31 86 -47 29 -16 86 -48 125 -72 70 -42
110 -66 236 -136 36 -20 99 -56 140 -81 41 -25 102 -61 135 -79 33 -18 76 -42
95 -53 19 -10 78 -45 130 -77 52 -31 120 -71 150 -87 30 -16 107 -60 170 -98
63 -37 149 -85 190 -107 41 -22 82 -45 90 -52 16 -14 203 -121 290 -167 19
-10 57 -33 85 -51 l50 -33 0 -670 c1 -500 4 -669 12 -668 7 2 56 29 110 61 54
32 115 67 136 76 l37 18 0 678 0 678 -117 69 c-65 37 -125 71 -134 75 -10 4
-85 48 -167 97 -83 50 -153 91 -156 91 -3 0 -77 43 -165 94 -88 52 -178 104
-200 116 -23 11 -87 48 -143 82 -57 34 -132 78 -168 98 -117 66 -161 91 -208
121 -26 15 -74 43 -107 60 -33 17 -98 55 -145 84 -47 29 -103 62 -125 74 -22
12 -60 33 -85 47 -25 14 -66 37 -93 51 -26 14 -50 29 -53 34 -3 5 -107 9 -232
8 l-227 -1 -87 -51z"/>
<path d="M2715 4553 c-223 -129 -285 -165 -285 -169 0 -1 30 -20 68 -40 37
-21 100 -57 139 -81 40 -24 77 -43 81 -43 5 0 45 21 90 48 45 26 111 64 146
85 l65 37 163 -94 c90 -51 197 -113 238 -136 41 -24 138 -80 215 -126 77 -45
167 -96 200 -114 33 -18 103 -58 155 -90 52 -31 118 -69 145 -84 28 -16 78
-44 112 -62 33 -19 63 -40 65 -47 5 -17 3 -1486 -3 -1490 -10 -9 -208 -123
-268 -155 -37 -19 -88 -49 -116 -67 -27 -18 -93 -56 -145 -85 -52 -29 -142
-80 -200 -115 -58 -34 -130 -76 -160 -92 -54 -30 -262 -150 -490 -283 -63 -37
-158 -91 -210 -120 -52 -29 -106 -61 -120 -70 -14 -10 -43 -28 -65 -40 -22
-12 -84 -47 -137 -77 l-98 -55 -50 31 c-28 17 -53 31 -56 31 -3 0 -67 37 -142
82 -76 44 -164 96 -197 113 -33 18 -117 67 -187 109 -71 42 -131 76 -134 76
-3 0 -77 42 -163 94 -152 90 -234 136 -246 136 -3 0 -4 -75 -3 -167 l3 -167
45 -26 c25 -14 77 -44 115 -65 39 -21 86 -48 105 -60 19 -12 116 -68 215 -124
99 -57 208 -121 242 -142 34 -21 65 -39 69 -39 4 0 84 -45 178 -101 94 -55
179 -104 189 -110 18 -10 60 8 137 56 60 38 202 121 265 155 33 18 119 68 192
111 73 43 135 79 138 79 3 0 61 34 130 75 68 41 142 83 164 94 22 12 106 61
188 109 81 49 155 91 163 94 8 3 90 50 182 104 93 55 246 143 340 198 95 54
228 131 295 170 l123 71 0 921 0 921 -94 56 c-52 31 -97 57 -101 57 -3 0 -77
43 -164 95 -87 52 -166 98 -177 101 -10 4 -64 35 -119 69 -55 33 -131 78 -170
99 -38 22 -133 76 -210 121 -77 45 -181 105 -231 133 l-92 52 -223 0 -224 0
-80 -47z"/>
<path d="M1735 3988 c-77 -44 -204 -119 -282 -165 -78 -45 -144 -83 -146 -83
-4 0 -239 -136 -449 -259 -47 -28 -91 -51 -97 -51 -6 0 -11 -4 -11 -9 0 -5 -8
-12 -19 -16 -18 -5 -19 -41 -19 -1320 l0 -1313 111 -63 c62 -34 159 -90 217
-125 160 -94 417 -243 490 -282 36 -19 81 -45 100 -57 65 -41 235 -140 260
-151 14 -6 55 -30 93 -53 l67 -41 251 0 251 0 72 43 c39 24 78 46 88 49 9 4
53 29 98 57 45 28 83 51 86 51 2 0 25 13 51 29 27 16 80 46 118 68 67 36 192
109 443 257 64 38 137 80 162 93 25 14 84 48 133 75 l87 50 0 325 0 325 -32
-20 c-18 -10 -79 -47 -135 -81 -57 -33 -107 -61 -113 -61 -13 0 -12 9 -14
-165 l-1 -149 -40 -27 c-22 -14 -65 -39 -95 -55 -66 -35 -244 -139 -282 -165
-15 -11 -30 -19 -34 -19 -3 0 -74 -40 -157 -89 -84 -49 -170 -99 -192 -111
-82 -45 -182 -104 -240 -140 -33 -20 -78 -46 -100 -57 -45 -22 -88 -46 -95
-53 -10 -10 -50 -30 -60 -30 -6 0 -28 11 -50 25 -22 14 -64 38 -93 54 -58 31
-309 176 -487 281 -113 66 -333 193 -480 276 -41 23 -99 57 -127 74 l-53 31 0
1143 0 1144 24 16 c26 17 61 37 166 96 36 20 82 46 103 58 20 12 52 30 70 41
17 10 62 37 99 60 37 22 71 41 75 41 7 0 167 93 251 147 29 19 64 38 78 43 14
6 77 42 140 80 63 39 118 70 123 70 5 0 14 7 21 15 7 8 8 15 3 15 -4 0 -44 21
-88 46 -168 97 -197 114 -198 114 -1 0 -65 -37 -142 -82z"/>
</g>
</svg>
